# xmcd CD database file
#
# Track frame offsets:
#	150
#	13965
#	28475
#	51845
#	99060
#	116555
#	129767
#	142412
#	150512
#	180782
#	208922
#	223215
#	242052
#	255937
#
# Disc length: 3874 seconds
#
# Revision: 2
# Processed by: cddbd v1.5.1PL0 Copyright (c) Steve Scherf et al.
# Submitted via: CDex 1.51
#
DISCID=c30f200e
DTITLE=Variuos Artists - 28 Great Jazz Classics Cd1
DYEAR=1900
DGENRE=Jazz
TTITLE0=Dizzy Gilliespie - Hot Haus
TTITLE1=Miles Davis - Bird Of Paradis
TTITLE2=Charly Parker - How High The Moon
TTITLE3=Art Blakey and The Jazz Messengers - Soulfull Mr. Timmons
TTITLE4=Cannonball Adderley - Fallen Feathers
TTITLE5=Miles Davis - Scrapple The Apple
TTITLE6=Dizzy Gilliespie - All These Things You Are
TTITLE7=Charly Parker - Slow Boat To China
TTITLE8=Cannonball Adderley - Scavenger
TTITLE9=Art Blakey and The Jazz Messengers - Au Privave
TTITLE10=Dizzy Gilliespie - Emamon
TTITLE11=Miles Davis - Out Of Nowhere
TTITLE12=Charlie Parker - Klact-Oveededs-Teine
TTITLE13=Cannonball Adderley - Minority
EXTD=
EXTT0=
EXTT1=
EXTT2=
EXTT3=
EXTT4=
EXTT5=
EXTT6=
EXTT7=
EXTT8=
EXTT9=
EXTT10=
EXTT11=
EXTT12=
EXTT13=
PLAYORDER=
